<svg width="229" height="209" viewBox="0 0 229 209" fill="none" xmlns="http://www.w3.org/2000/svg">
<path d="M114.5 209L110.459 205.481C23.5735 131.593 0 105.556 0 63.3333C0 28.1481 26.9412 0 60.6176 0C88.2324 0 103.724 16.1852 114.5 28.8519C125.276 16.1852 140.768 0 168.382 0C202.059 0 229 28.1481 229 63.3333C229 105.556 205.426 131.593 118.541 205.481L114.5 209ZM60.6176 14.0741C34.35 14.0741 13.4706 35.8889 13.4706 63.3333C13.4706 99.2222 35.0235 123.148 114.5 190.704C193.976 123.148 215.529 99.2222 215.529 63.3333C215.529 35.8889 194.65 14.0741 168.382 14.0741C144.809 14.0741 132.012 28.8519 121.909 40.8148L114.5 49.963L107.091 40.8148C96.9882 28.8519 84.1912 14.0741 60.6176 14.0741Z" fill="black"/>
</svg>
