<svg width="230" height="237" viewBox="0 0 230 237" fill="none" xmlns="http://www.w3.org/2000/svg">
<path d="M221.285 9.47171C215.706 3.72951 208.139 0.503662 200.25 0.503662C192.361 0.503662 184.794 3.72951 179.215 9.47171L166.103 22.97L208.172 66.2767L221.285 52.7784C226.863 47.0352 229.996 39.2464 229.996 31.125C229.996 23.0037 226.863 15.2149 221.285 9.47171V9.47171ZM196.147 78.655L154.078 35.3484L58.878 133.348C51.8836 140.545 46.742 149.422 43.918 159.178L34.8513 190.503C34.4136 192.015 34.3809 193.62 34.7568 195.15C35.1327 196.679 35.9032 198.075 36.9867 199.19C38.0702 200.306 39.4264 201.099 40.9119 201.486C42.3974 201.873 43.9568 201.839 45.4253 201.388L75.8553 192.055C85.3325 189.148 93.9564 183.855 100.947 176.655L196.147 78.655Z" fill="black"/>
<path d="M34.5 44.25C25.4826 44.25 16.8346 47.9375 10.4584 54.5013C4.08213 61.065 0.5 69.9674 0.5 79.25V201.75C0.5 211.033 4.08213 219.935 10.4584 226.499C16.8346 233.063 25.4826 236.75 34.5 236.75H153.5C162.517 236.75 171.165 233.063 177.542 226.499C183.918 219.935 187.5 211.033 187.5 201.75V140.5C187.5 138.179 186.604 135.954 185.01 134.313C183.416 132.672 181.254 131.75 179 131.75C176.746 131.75 174.584 132.672 172.99 134.313C171.396 135.954 170.5 138.179 170.5 140.5V201.75C170.5 206.391 168.709 210.842 165.521 214.124C162.333 217.406 158.009 219.25 153.5 219.25H34.5C29.9913 219.25 25.6673 217.406 22.4792 214.124C19.2911 210.842 17.5 206.391 17.5 201.75V79.25C17.5 74.6087 19.2911 70.1575 22.4792 66.8756C25.6673 63.5937 29.9913 61.75 34.5 61.75H94C96.2543 61.75 98.4163 60.8281 100.01 59.1872C101.604 57.5462 102.5 55.3206 102.5 53C102.5 50.6794 101.604 48.4538 100.01 46.8128C98.4163 45.1719 96.2543 44.25 94 44.25H34.5Z" fill="black"/>
</svg>
