 <svg width="224" height="230" viewBox="0 0 224 230" fill="none" xmlns="http://www.w3.org/2000/svg">
<path d="M5.33325 49.4999H218.667M90.6666 104.083V158.667M133.333 104.083V158.667M26.6666 49.4999H197.333L180.48 204.735C179.902 210.077 177.419 215.014 173.507 218.599C169.594 222.185 164.526 224.167 159.275 224.167H64.7252C59.4734 224.167 54.4059 222.185 50.4932 218.599C46.5805 215.014 44.0976 210.077 43.5199 204.735L26.6666 49.4999ZM62.3466 18.3547C64.0719 14.6099 66.8021 11.4444 70.2186 9.22736C73.6352 7.01034 77.5972 5.8332 81.6426 5.83325H142.357C146.404 5.83113 150.369 7.0073 153.787 9.22444C157.206 11.4416 159.938 14.6082 161.664 18.3547L176 49.4999H47.9999L62.3466 18.3547V18.3547Z" stroke="black" stroke-width="10" stroke-linecap="round" stroke-linejoin="round"/>
</svg>
