<svg width="290" height="104" viewBox="0 0 290 104" fill="none" xmlns="http://www.w3.org/2000/svg">
<path d="M69.888 102.336C63.488 88.128 56.576 74.048 50.176 59.584C60.416 55.872 68.992 47.68 68.992 32.064C68.992 1.856 40.192 1.6 34.432 1.6H1.28C0.64 1.6 0 2.24 0 2.752V20.16H19.456H34.432C37.504 20.16 49.536 20.8 49.536 32.064C49.536 43.328 38.656 43.84 34.432 43.84H19.456H0V102.848C0 103.36 0.64 104 1.28 104H18.048C18.816 104 19.456 103.36 19.456 102.848V62.656H30.464L49.152 103.232C49.28 103.616 50.048 104 50.432 104H68.736C69.76 104 70.272 103.232 69.888 102.336ZM122.265 84.928H93.209V61.888H133.401C134.169 61.888 134.809 61.248 134.809 60.736V44.48C134.809 43.84 134.169 43.328 133.401 43.328H93.209V20.16H122.265V1.6H75.033C74.265 1.6 73.625 2.24 73.625 2.752V102.848C73.625 103.36 74.265 104 75.033 104H122.265V84.928ZM187.795 32.064C187.795 43.328 172.691 43.328 172.691 43.328H157.331V19.904H172.691C172.691 19.904 187.795 19.776 187.795 32.064ZM207.379 30.912C207.379 0.831993 172.691 1.6 172.691 1.6H139.283C138.515 1.6 137.875 2.24 137.875 2.752V62.4H157.331H172.691C172.691 62.4 189.203 61.632 189.203 73.664C189.203 83.52 179.091 85.312 172.691 85.312H157.459V104H172.691C179.603 104 208.787 102.72 208.787 74.176C208.787 74.176 209.427 58.304 193.171 52.8C200.979 49.6 207.379 42.816 207.379 30.912ZM287.895 1.6H271.255C270.359 1.6 269.847 2.24 269.847 2.752V69.824C269.847 80.192 260.375 85.184 250.775 85.184C241.303 85.184 232.855 79.808 231.703 69.696V20.16H212.375V69.824C212.375 90.944 229.655 104 250.775 104C272.535 104 289.175 91.456 289.175 69.824V2.752C289.175 2.24 288.535 1.6 287.895 1.6Z" fill="#7B2292"/>
</svg>
