<svg width="59" height="48" viewBox="0 0 59 48" fill="none" xmlns="http://www.w3.org/2000/svg">
<path d="M46.7083 21.9999H17.5525L26.4763 13.2799C26.8935 12.8715 27.0943 12.3449 27.0343 11.8161C26.9744 11.2872 26.6587 10.7994 26.1567 10.4599C25.6546 10.1205 25.0074 9.95714 24.3574 10.0059C23.7073 10.0547 23.1077 10.3115 22.6904 10.7199L10.3988 22.7199C10.3161 22.8154 10.2421 22.9157 10.1775 23.0199C10.1775 23.1199 10.1775 23.1799 10.0054 23.2799C9.894 23.5093 9.83565 23.7534 9.83334 23.9999C9.83565 24.2465 9.894 24.4906 10.0054 24.7199C10.0054 24.8199 10.0054 24.8799 10.1775 24.9799C10.2421 25.0842 10.3161 25.1845 10.3988 25.2799L22.6904 37.2799C22.9216 37.5057 23.211 37.6873 23.5382 37.8117C23.8653 37.9362 24.2222 38.0004 24.5833 37.9999C25.1577 38.0009 25.7144 37.8381 26.1567 37.5399C26.4056 37.372 26.6114 37.1658 26.7622 36.9331C26.913 36.7005 27.0059 36.4458 27.0356 36.1839C27.0653 35.9219 27.0312 35.6578 26.9352 35.4066C26.8392 35.1554 26.6833 34.922 26.4763 34.7199L17.5525 25.9999H46.7083C47.3603 25.9999 47.9856 25.7892 48.4466 25.4142C48.9077 25.0391 49.1667 24.5304 49.1667 23.9999C49.1667 23.4695 48.9077 22.9608 48.4466 22.5857C47.9856 22.2107 47.3603 21.9999 46.7083 21.9999Z" fill="#7B2292"/>
</svg>
