<svg width="103" height="41" viewBox="0 0 103 41" fill="none" xmlns="http://www.w3.org/2000/svg">
<g filter="url(#filter0_d_247_72)">
<rect x="4" width="95" height="33" rx="16.5" fill="#2E94B9"/>
</g>
<path d="M32.2051 16.9814H28.7861V15.6016H32.2051C32.8672 15.6016 33.4033 15.4961 33.8135 15.2852C34.2236 15.0742 34.5225 14.7812 34.71 14.4062C34.9033 14.0312 35 13.6035 35 13.123C35 12.6836 34.9033 12.2705 34.71 11.8838C34.5225 11.4971 34.2236 11.1865 33.8135 10.9521C33.4033 10.7119 32.8672 10.5918 32.2051 10.5918H29.1816V22H27.4854V9.20312H32.2051C33.1719 9.20312 33.9893 9.37012 34.6572 9.7041C35.3252 10.0381 35.832 10.501 36.1777 11.0928C36.5234 11.6787 36.6963 12.3496 36.6963 13.1055C36.6963 13.9258 36.5234 14.626 36.1777 15.2061C35.832 15.7861 35.3252 16.2285 34.6572 16.5332C33.9893 16.832 33.1719 16.9814 32.2051 16.9814ZM38.041 17.3506V17.1484C38.041 16.4629 38.1406 15.8271 38.3398 15.2412C38.5391 14.6494 38.8262 14.1367 39.2012 13.7031C39.5762 13.2637 40.0303 12.9238 40.5635 12.6836C41.0967 12.4375 41.6943 12.3145 42.3564 12.3145C43.0244 12.3145 43.625 12.4375 44.1582 12.6836C44.6973 12.9238 45.1543 13.2637 45.5293 13.7031C45.9102 14.1367 46.2002 14.6494 46.3994 15.2412C46.5986 15.8271 46.6982 16.4629 46.6982 17.1484V17.3506C46.6982 18.0361 46.5986 18.6719 46.3994 19.2578C46.2002 19.8438 45.9102 20.3564 45.5293 20.7959C45.1543 21.2295 44.7002 21.5693 44.167 21.8154C43.6396 22.0557 43.042 22.1758 42.374 22.1758C41.7061 22.1758 41.1055 22.0557 40.5723 21.8154C40.0391 21.5693 39.582 21.2295 39.2012 20.7959C38.8262 20.3564 38.5391 19.8438 38.3398 19.2578C38.1406 18.6719 38.041 18.0361 38.041 17.3506ZM39.667 17.1484V17.3506C39.667 17.8252 39.7227 18.2734 39.834 18.6953C39.9453 19.1113 40.1123 19.4805 40.335 19.8027C40.5635 20.125 40.8477 20.3799 41.1875 20.5674C41.5273 20.749 41.9229 20.8398 42.374 20.8398C42.8193 20.8398 43.209 20.749 43.543 20.5674C43.8828 20.3799 44.1641 20.125 44.3867 19.8027C44.6094 19.4805 44.7764 19.1113 44.8877 18.6953C45.0049 18.2734 45.0635 17.8252 45.0635 17.3506V17.1484C45.0635 16.6797 45.0049 16.2373 44.8877 15.8213C44.7764 15.3994 44.6064 15.0273 44.3779 14.7051C44.1553 14.377 43.874 14.1191 43.5342 13.9316C43.2002 13.7441 42.8076 13.6504 42.3564 13.6504C41.9111 13.6504 41.5186 13.7441 41.1787 13.9316C40.8447 14.1191 40.5635 14.377 40.335 14.7051C40.1123 15.0273 39.9453 15.3994 39.834 15.8213C39.7227 16.2373 39.667 16.6797 39.667 17.1484ZM54.2744 19.4775C54.2744 19.2432 54.2217 19.0264 54.1162 18.8271C54.0166 18.6221 53.8086 18.4375 53.4922 18.2734C53.1816 18.1035 52.7129 17.957 52.0859 17.834C51.5586 17.7227 51.0811 17.5908 50.6533 17.4385C50.2314 17.2861 49.8711 17.1016 49.5723 16.8848C49.2793 16.668 49.0537 16.4131 48.8955 16.1201C48.7373 15.8271 48.6582 15.4844 48.6582 15.0918C48.6582 14.7168 48.7402 14.3623 48.9043 14.0283C49.0742 13.6943 49.3115 13.3984 49.6162 13.1406C49.9268 12.8828 50.2988 12.6807 50.7324 12.5342C51.166 12.3877 51.6494 12.3145 52.1826 12.3145C52.9443 12.3145 53.5947 12.4492 54.1338 12.7188C54.6729 12.9883 55.0859 13.3486 55.373 13.7998C55.6602 14.2451 55.8037 14.7402 55.8037 15.2852H54.1777C54.1777 15.0215 54.0986 14.7666 53.9404 14.5205C53.7881 14.2686 53.5625 14.0605 53.2637 13.8965C52.9707 13.7324 52.6104 13.6504 52.1826 13.6504C51.7314 13.6504 51.3652 13.7207 51.084 13.8613C50.8086 13.9961 50.6064 14.1689 50.4775 14.3799C50.3545 14.5908 50.293 14.8135 50.293 15.0479C50.293 15.2236 50.3223 15.3818 50.3809 15.5225C50.4453 15.6572 50.5566 15.7832 50.7148 15.9004C50.873 16.0117 51.0957 16.1172 51.3828 16.2168C51.6699 16.3164 52.0361 16.416 52.4814 16.5156C53.2607 16.6914 53.9023 16.9023 54.4062 17.1484C54.9102 17.3945 55.2852 17.6963 55.5312 18.0537C55.7773 18.4111 55.9004 18.8447 55.9004 19.3545C55.9004 19.7705 55.8125 20.1514 55.6367 20.4971C55.4668 20.8428 55.2178 21.1416 54.8896 21.3936C54.5674 21.6396 54.1807 21.833 53.7295 21.9736C53.2842 22.1084 52.7832 22.1758 52.2266 22.1758C51.3887 22.1758 50.6797 22.0264 50.0996 21.7275C49.5195 21.4287 49.0801 21.042 48.7812 20.5674C48.4824 20.0928 48.333 19.5918 48.333 19.0645H49.9678C49.9912 19.5098 50.1201 19.8643 50.3545 20.1279C50.5889 20.3857 50.876 20.5703 51.2158 20.6816C51.5557 20.7871 51.8926 20.8398 52.2266 20.8398C52.6719 20.8398 53.0439 20.7812 53.3428 20.6641C53.6475 20.5469 53.8789 20.3857 54.0371 20.1807C54.1953 19.9756 54.2744 19.7412 54.2744 19.4775ZM62.0176 12.4902V13.7383H56.876V12.4902H62.0176ZM58.6162 10.1787H60.2422V19.6445C60.2422 19.9668 60.292 20.21 60.3916 20.374C60.4912 20.5381 60.6201 20.6465 60.7783 20.6992C60.9365 20.752 61.1064 20.7783 61.2881 20.7783C61.4229 20.7783 61.5635 20.7666 61.71 20.7432C61.8623 20.7139 61.9766 20.6904 62.0527 20.6729L62.0615 22C61.9326 22.041 61.7627 22.0791 61.5518 22.1143C61.3467 22.1553 61.0977 22.1758 60.8047 22.1758C60.4062 22.1758 60.04 22.0967 59.7061 21.9385C59.3721 21.7803 59.1055 21.5166 58.9062 21.1475C58.7129 20.7725 58.6162 20.2686 58.6162 19.6357V10.1787ZM69.5322 20.374V15.4785C69.5322 15.1035 69.4561 14.7783 69.3037 14.5029C69.1572 14.2217 68.9346 14.0049 68.6357 13.8525C68.3369 13.7002 67.9678 13.624 67.5283 13.624C67.1182 13.624 66.7578 13.6943 66.4473 13.835C66.1426 13.9756 65.9023 14.1602 65.7266 14.3887C65.5566 14.6172 65.4717 14.8633 65.4717 15.127H63.8457C63.8457 14.7871 63.9336 14.4502 64.1094 14.1162C64.2852 13.7822 64.5371 13.4805 64.8652 13.2109C65.1992 12.9355 65.5977 12.7188 66.0605 12.5605C66.5293 12.3965 67.0508 12.3145 67.625 12.3145C68.3164 12.3145 68.9258 12.4316 69.4531 12.666C69.9863 12.9004 70.4023 13.2549 70.7012 13.7295C71.0059 14.1982 71.1582 14.7871 71.1582 15.4961V19.9258C71.1582 20.2422 71.1846 20.5791 71.2373 20.9365C71.2959 21.2939 71.3809 21.6016 71.4922 21.8594V22H69.7959C69.7139 21.8125 69.6494 21.5635 69.6025 21.2529C69.5557 20.9365 69.5322 20.6436 69.5322 20.374ZM69.8135 16.2344L69.8311 17.377H68.1875C67.7246 17.377 67.3115 17.415 66.9482 17.4912C66.585 17.5615 66.2803 17.6699 66.0342 17.8164C65.7881 17.9629 65.6006 18.1475 65.4717 18.3701C65.3428 18.5869 65.2783 18.8418 65.2783 19.1348C65.2783 19.4336 65.3457 19.7061 65.4805 19.9521C65.6152 20.1982 65.8174 20.3945 66.0869 20.541C66.3623 20.6816 66.6992 20.752 67.0977 20.752C67.5957 20.752 68.0352 20.6465 68.416 20.4355C68.7969 20.2246 69.0986 19.9668 69.3213 19.6621C69.5498 19.3574 69.6729 19.0615 69.6904 18.7744L70.3848 19.5566C70.3438 19.8027 70.2324 20.0752 70.0508 20.374C69.8691 20.6729 69.626 20.96 69.3213 21.2354C69.0225 21.5049 68.665 21.7305 68.249 21.9121C67.8389 22.0879 67.376 22.1758 66.8604 22.1758C66.2158 22.1758 65.6504 22.0498 65.1641 21.7979C64.6836 21.5459 64.3086 21.209 64.0391 20.7871C63.7754 20.3594 63.6436 19.8818 63.6436 19.3545C63.6436 18.8447 63.7432 18.3965 63.9424 18.0098C64.1416 17.6172 64.4287 17.292 64.8037 17.0342C65.1787 16.7705 65.6299 16.5713 66.1572 16.4365C66.6846 16.3018 67.2734 16.2344 67.9238 16.2344H69.8135ZM75.3418 13.9844V22H73.7158V12.4902H75.2979L75.3418 13.9844ZM78.3125 12.4375L78.3037 13.9492C78.1689 13.9199 78.04 13.9023 77.917 13.8965C77.7998 13.8848 77.665 13.8789 77.5127 13.8789C77.1377 13.8789 76.8066 13.9375 76.5195 14.0547C76.2324 14.1719 75.9893 14.3359 75.79 14.5469C75.5908 14.7578 75.4326 15.0098 75.3154 15.3027C75.2041 15.5898 75.1309 15.9062 75.0957 16.252L74.6387 16.5156C74.6387 15.9414 74.6943 15.4023 74.8057 14.8984C74.9229 14.3945 75.1016 13.9492 75.3418 13.5625C75.582 13.1699 75.8867 12.8652 76.2559 12.6484C76.6309 12.4258 77.0762 12.3145 77.5918 12.3145C77.709 12.3145 77.8438 12.3291 77.9961 12.3584C78.1484 12.3818 78.2539 12.4082 78.3125 12.4375Z" fill="white"/>
<defs>
<filter id="filter0_d_247_72" x="0" y="0" width="103" height="41" filterUnits="userSpaceOnUse" color-interpolation-filters="sRGB">
<feFlood flood-opacity="0" result="BackgroundImageFix"/>
<feColorMatrix in="SourceAlpha" type="matrix" values="0 0 0 0 0 0 0 0 0 0 0 0 0 0 0 0 0 0 127 0" result="hardAlpha"/>
<feOffset dy="4"/>
<feGaussianBlur stdDeviation="2"/>
<feComposite in2="hardAlpha" operator="out"/>
<feColorMatrix type="matrix" values="0 0 0 0 0 0 0 0 0 0 0 0 0 0 0 0 0 0 0.25 0"/>
<feBlend mode="normal" in2="BackgroundImageFix" result="effect1_dropShadow_247_72"/>
<feBlend mode="normal" in="SourceGraphic" in2="effect1_dropShadow_247_72" result="shape"/>
</filter>
</defs>
</svg>
