<svg width="30" height="30" viewBox="0 0 30 30" fill="none" xmlns="http://www.w3.org/2000/svg">
<path d="M14.9996 1.875C6.71448 1.875 0.0012207 7.33008 0.0012207 14.0625C0.0012207 16.8533 1.16782 19.4092 3.10142 21.457C2.22954 23.7715 0.413721 25.7273 0.384424 25.749C-0.00375977 26.1592 -0.106299 26.7598 0.113428 27.2725C0.340537 27.7852 0.842217 28.125 1.40589 28.125C5.0094 28.125 7.79847 26.6162 9.55628 25.415C11.1969 25.9453 13.0836 26.25 14.9996 26.25C23.2848 26.25 29.9469 20.7932 29.9469 14.0625C29.9469 7.33184 23.2848 1.875 14.9996 1.875ZM15.0055 23.4375C13.4381 23.4375 11.893 23.1958 10.4129 22.7273L9.07991 22.3099L7.93733 23.1155C7.10237 23.7085 5.95218 24.3683 4.56819 24.8147C5.00032 24.1046 5.41018 23.306 5.73304 22.4563L6.3553 20.8157L5.1471 19.5343C4.09065 18.4043 2.81624 16.5352 2.81624 14.0625C2.81624 8.8916 8.28011 4.6875 15.0037 4.6875C21.7274 4.6875 27.1912 8.8916 27.1912 14.0625C27.1912 19.2334 21.7262 23.4375 15.0055 23.4375Z" fill="#178AB5"/>
</svg>
