<svg width="40" height="40" viewBox="0 0 40 40" fill="none" xmlns="http://www.w3.org/2000/svg">
<path d="M37.2776 7.1999C37.2776 6.72548 37.0891 6.27049 36.7537 5.93503C36.4182 5.59956 35.9632 5.4111 35.4888 5.4111C35.3976 5.4111 35.31 5.4247 35.222 5.4379V5.3999H4.49998V5.4111C4.02556 5.4111 3.57057 5.59956 3.23511 5.93503C2.89964 6.27049 2.71118 6.72548 2.71118 7.1999V32.9999H2.73118C2.83198 33.8923 3.58038 34.5887 4.49958 34.5887V34.5999H35.2216V34.5619C35.3092 34.5751 35.3968 34.5887 35.4884 34.5887C36.408 34.5887 37.1564 33.8927 37.2572 32.9999H37.2884V7.1999H37.2776ZM33.306 30.6171H28.9616C28.947 30.5556 28.9247 30.4962 28.8952 30.4403L28.9024 30.4363L19.8148 14.6963L19.8112 14.6983C19.7109 14.4901 19.5541 14.3144 19.3585 14.1913C19.163 14.0682 18.9367 14.0027 18.7056 14.0023C18.4681 14.0026 18.2358 14.0715 18.0366 14.2007C17.8375 14.33 17.6798 14.514 17.5828 14.7307L11.5352 25.2051L10.0544 22.6407L10.0524 22.6419C9.99958 22.5321 9.9169 22.4394 9.81381 22.3745C9.71073 22.3095 9.59142 22.2749 9.46958 22.2747C9.20598 22.2747 8.97998 22.4327 8.87798 22.6579L6.69398 26.4407V9.3939H33.306V30.6171Z" fill="#178AB5"/>
<path d="M27.2487 19.4736C29.48 19.4736 31.2887 17.6648 31.2887 15.4336C31.2887 13.2023 29.48 11.3936 27.2487 11.3936C25.0175 11.3936 23.2087 13.2023 23.2087 15.4336C23.2087 17.6648 25.0175 19.4736 27.2487 19.4736Z" fill="#178AB5"/>
</svg>
