<svg width="41" height="40" viewBox="0 0 41 40" fill="none" xmlns="http://www.w3.org/2000/svg">
<path d="M2.93531 2.78987L25.1573 2.88683L25.0979 16.4978L27.8757 16.5099L27.9351 2.89895C27.9383 2.16225 27.6487 1.45444 27.13 0.931237C26.6114 0.408035 25.9061 0.112297 25.1694 0.109083L2.94743 0.0121203C2.21072 0.0089058 1.50291 0.298478 0.979712 0.817134C0.45651 1.33579 0.160772 2.04105 0.157557 2.77775L0.0121138 36.1108C0.00889935 36.8475 0.298471 37.5553 0.817128 38.0785C1.33578 38.6017 2.04104 38.8974 2.77774 38.9006L24.9997 38.9976C25.7365 39.0008 26.4443 38.7112 26.9675 38.1926C27.4907 37.6739 27.7864 36.9687 27.7896 36.232L2.78986 36.1229L2.93531 2.78987Z" fill="#2E94B9"/>
<path d="M32.2555 18.5847C31.9908 18.356 31.6495 18.2356 31.2999 18.2476C30.9503 18.2595 30.6181 18.403 30.3697 18.6493C30.1212 18.8955 29.9749 19.2265 29.9599 19.576C29.9448 19.9255 30.0622 20.2677 30.2886 20.5344L34.963 25.1521L14.8243 25.0642C14.4559 25.0626 14.102 25.2074 13.8404 25.4667C13.5788 25.7261 13.4309 26.0787 13.4293 26.447C13.4277 26.8154 13.5725 27.1693 13.8318 27.4309C14.0912 27.6925 14.4438 27.8404 14.8121 27.842L34.9508 27.9298L30.2355 32.7149C30.0895 32.8387 29.9708 32.9914 29.8867 33.1634C29.8026 33.3353 29.7549 33.5228 29.7467 33.7141C29.7384 33.9053 29.7698 34.0962 29.8389 34.2747C29.9079 34.4532 30.0131 34.6156 30.1479 34.7515C30.2827 34.8875 30.4441 34.9941 30.622 35.0647C30.7999 35.1353 30.9905 35.1683 31.1818 35.1618C31.3731 35.1552 31.561 35.1092 31.7337 35.0266C31.9064 34.944 32.0601 34.8266 32.1852 34.6817L40.3314 26.6616L32.2555 18.5847Z" fill="#2E94B9"/>
</svg>
